<?xml version="1.0" standalone="no"?>
<!DOCTYPE svg PUBLIC "-//W3C//DTD SVG 20010904//EN"
 "http://www.w3.org/TR/2001/REC-SVG-20010904/DTD/svg10.dtd">
<svg version="1.0" xmlns="http://www.w3.org/2000/svg"
 width="700.000000pt" height="700.000000pt" viewBox="0 0 700.000000 700.000000"
 preserveAspectRatio="xMidYMid meet">
<metadata>
Created by potrace 1.11, written by Peter Selinger 2001-2013
</metadata>
<g transform="translate(0.000000,700.000000) scale(0.100000,-0.100000)"
fill="#000000" stroke="none">
<path d="M3108 6295 c-2 -1 -77 -6 -168 -9 -91 -4 -194 -9 -230 -11 -146 -8
-262 -17 -283 -20 -12 -2 -56 -6 -97 -10 -122 -9 -227 -21 -335 -36 -38 -5
-88 -12 -110 -15 -22 -2 -67 -9 -100 -15 -33 -5 -69 -12 -80 -14 -78 -13 -114
-20 -220 -46 -225 -55 -372 -116 -437 -181 l-38 -38 0 -272 0 -271 45 -44 c46
-43 71 -57 180 -98 73 -28 72 -11 20 -275 -3 -14 -12 -63 -20 -110 -13 -78
-19 -119 -30 -197 -2 -15 -6 -41 -9 -58 -3 -16 -8 -50 -11 -75 -3 -25 -7 -56
-10 -70 -2 -14 -7 -47 -10 -75 -3 -27 -10 -84 -15 -125 -17 -139 -21 -180 -35
-365 -9 -105 -19 -384 -18 -505 0 -364 35 -642 107 -862 42 -125 74 -194 133
-276 l44 -62 72 -1 c139 -1 206 -5 212 -11 3 -3 8 -165 11 -359 3 -205 9 -368
15 -387 29 -90 202 -182 474 -252 100 -26 288 -63 375 -74 19 -3 58 -8 85 -11
28 -3 61 -8 75 -10 74 -10 170 -19 340 -31 138 -11 826 -11 960 -1 204 15 236
18 310 27 41 5 98 12 125 15 92 11 345 54 355 60 4 2 22 7 41 10 19 3 52 11
74 17 22 6 45 12 51 14 29 5 172 58 223 82 80 37 133 75 166 118 27 35 29 46
31 129 1 49 5 234 9 410 12 567 25 959 50 1453 5 89 12 136 26 170 11 26 25
58 31 72 6 14 14 34 18 45 4 11 13 34 20 50 47 117 168 553 183 660 3 22 8 47
11 55 3 8 8 33 11 55 20 136 35 236 40 275 3 25 7 61 10 80 4 32 13 137 20
235 2 22 3 64 4 92 l1 53 62 31 c92 47 136 78 158 114 19 31 20 49 20 291 l-1
259 -47 45 c-50 49 -104 78 -217 117 -102 36 -289 84 -385 99 -19 3 -42 7 -50
9 -8 3 -60 11 -115 19 -193 29 -227 34 -300 41 -33 3 -78 7 -100 10 -59 6
-232 23 -320 30 -27 2 -106 7 -175 10 -69 4 -150 9 -180 11 -60 5 -1047 13
-1052 9z m-1611 -1832 c-3 -10 -5 -4 -5 12 0 17 2 24 5 18 2 -7 2 -21 0 -30z
m15 -73 c2 -22 0 -40 -4 -40 -5 0 -8 18 -8 40 0 22 2 40 4 40 2 0 6 -18 8 -40z
m8 -65 c0 -8 -2 -15 -4 -15 -2 0 -6 7 -10 15 -3 8 -1 15 4 15 6 0 10 -7 10
-15z m46 -447 c0 -13 4 -50 7 -83 8 -72 14 -138 22 -225 3 -36 7 -90 9 -120 3
-30 8 -98 11 -150 3 -52 8 -117 10 -145 2 -27 6 -104 10 -170 4 -66 8 -130 10
-142 4 -40 -13 -15 -34 50 -12 35 -24 73 -26 85 -3 12 -7 32 -10 45 -3 12 -7
38 -10 57 -2 19 -7 51 -9 70 -15 101 -22 447 -11 590 1 25 3 71 4 103 1 31 5
57 9 57 4 0 8 -10 8 -22z"/>
</g>
</svg>
